<mxfile host="app.diagrams.net" modified="2024-04-11T02:47:25.389Z" agent="Mozilla/5.0 (Macintosh; Intel Mac OS X 10_15_7) AppleWebKit/537.36 (KHTML, like Gecko) Chrome/123.0.0.0 Safari/537.36 Edg/123.0.0.0" version="24.0.7" etag="VtI2DpFM1l61GBfpk3nm" type="github">
  <diagram name="第 1 页" id="jcVEZMa674RAuCqElUsa">
    <mxGraphModel>
      <root>
        <mxCell id="0" />
        <mxCell id="1" parent="0" />
      </root>
    </mxGraphModel>
  </diagram>
</mxfile>
